<svg width="50" height="50" viewBox="0 0 50 50" fill="none" xmlns="http://www.w3.org/2000/svg">

    <g id="code">
        <path fill-rule="evenodd" clip-rule="evenodd" d="M18.3125 42.0645L27.2623 6.6875L31.4375 7.87241L22.4878 43.3125L18.3125 42.0645Z" fill="#7572D5"/>
        <path fill-rule="evenodd" clip-rule="evenodd" d="M13.5025 12.6875L16.5625 15.9278L7.99501 25.0001L16.5625 34.0721L13.5025 37.3125L1.875 25.0001L13.5025 12.6875Z" fill="#7572D5"/>
        <path fill-rule="evenodd" clip-rule="evenodd" d="M36.4976 12.6875L33.4375 15.9278L42.0051 25.0001L33.4375 34.0721L36.4976 37.3125L48.125 25.0001L36.4976 12.6875Z" fill="#7572D5"/>
    </g>

    <g id="git">
        <path d="M15 0C6.71 0 0 6.71 0 15C0 21.63 4.29 27.24 10.25 29.23C11 29.36 11.28 28.91 11.28 28.51C11.28 28.16 11.26 26.98 11.26 25.72C7.5 26.41 6.52 24.8 6.22 23.96C6.05 23.53 5.32 22.2 4.68 21.84C4.16 21.56 3.41 20.86 4.66 20.85C5.84 20.83 6.69 21.93 6.97 22.38C8.32 24.65 10.48 24.01 11.34 23.62C11.47 22.64 11.86 21.99 12.3 21.61C8.96 21.24 5.47 19.95 5.47 14.21C5.47 12.58 6.05 11.23 7.01 10.18C6.86 9.8 6.33 8.26 7.16 6.2C7.16 6.2 8.41 5.81 11.28 7.74C12.48 7.4 13.76 7.23 15.03 7.23C16.31 7.23 17.58 7.4 18.78 7.74C21.65 5.79 22.91 6.2 22.91 6.2C23.73 8.26 23.21 9.8 23.06 10.18C24.01 11.23 24.6 12.56 24.6 14.21C24.6 19.96 21.09 21.24 17.75 21.61C18.29 22.08 18.76 22.98 18.76 24.39C18.76 26.39 18.75 28.01 18.75 28.51C18.75 28.91 19.03 29.38 19.78 29.23C22.75 28.22 25.34 26.31 27.17 23.75C29.01 21.2 29.99 18.14 30 15C30 6.71 23.28 0 15 0Z" fill="#A7A7A7" fill-opacity="1.000000" fill-rule="evenodd"/>
    </g>

    <g id="linkedin">
        <defs>
        <clipPath id="clip2_5860">
            <rect rx="-0.500000" width="29.000000" height="29.000000" transform="translate(0.500000 0.500000)" fill="white" fill-opacity="0"/>
        </clipPath>
        </defs>
        <rect rx="-0.500000" width="29.000000" height="29.000000" transform="translate(0.500000 0.500000)" fill="#FFFFFF" fill-opacity="0"/>
        <g clip-path="url(#clip2_5860)">
            <path d="M15 0.6C7.04 0.6 0.59 7.04 0.59 15C0.59 22.95 7.04 29.4 15 29.4C22.95 29.4 29.4 22.95 29.4 15C29.4 7.04 22.95 0.6 15 0.6ZM11.47 20.96L8.55 20.96L8.55 11.58L11.47 11.58L11.47 20.96ZM9.99 10.43C9.07 10.43 8.48 9.78 8.48 8.97C8.48 8.14 9.09 7.51 10.03 7.51C10.97 7.51 11.55 8.14 11.57 8.97C11.57 9.78 10.97 10.43 9.99 10.43ZM22.12 20.96L19.2 20.96L19.2 15.76C19.2 14.55 18.78 13.73 17.73 13.73C16.92 13.73 16.44 14.29 16.23 14.82C16.15 15.01 16.13 15.28 16.13 15.55L16.13 20.96L13.22 20.96L13.22 14.57C13.22 13.4 13.18 12.42 13.14 11.58L15.67 11.58L15.81 12.88L15.87 12.88C16.25 12.27 17.19 11.37 18.76 11.37C20.68 11.37 22.12 12.65 22.12 15.42L22.12 20.96Z" fill="#A7A7A7" fill-opacity="1.000000" fill-rule="nonzero"/>
        </g>
    </g>

    <g id="twitter">
        <rect rx="-0.500000" width="29.000000" height="29.000000" transform="translate(0.500000 0.500000)" fill="#FFFFFF" fill-opacity="0"/>
        <path d="M16.87 1.87C8.59 1.87 1.87 8.59 1.87 16.87C1.87 25.15 8.59 31.87 16.87 31.87C25.15 31.87 31.87 25.15 31.87 16.87C31.87 8.59 25.15 1.87 16.87 1.87ZM24.08 13.18C24.09 13.33 24.09 13.5 24.09 13.66C24.09 18.57 20.35 24.24 13.51 24.24C11.4 24.24 9.44 23.62 7.79 22.57C8.09 22.6 8.38 22.62 8.69 22.62C10.43 22.62 12.03 22.03 13.31 21.03C11.67 21 10.3 19.92 9.83 18.45C10.4 18.53 10.92 18.53 11.51 18.38C10.67 18.21 9.91 17.76 9.37 17.09C8.83 16.42 8.53 15.59 8.53 14.73L8.53 14.69C9.03 14.97 9.6 15.14 10.21 15.16C9.7 14.82 9.28 14.36 8.99 13.82C8.7 13.28 8.55 12.68 8.55 12.07C8.55 11.37 8.73 10.74 9.06 10.19C9.99 11.34 11.16 12.28 12.48 12.95C13.8 13.62 15.25 14 16.73 14.08C16.2 11.55 18.09 9.5 20.36 9.5C21.43 9.5 22.39 9.95 23.07 10.68C23.91 10.52 24.72 10.2 25.43 9.78C25.16 10.64 24.57 11.37 23.8 11.83C24.55 11.75 25.27 11.54 25.94 11.25C25.44 11.99 24.81 12.65 24.08 13.18Z" fill="#A7A7A7" fill-opacity="1.000000" fill-rule="nonzero"/>
    </g>

</svg>
