<svg width="50" height="50" viewBox="0 0 50 50" fill="none" xmlns="http://www.w3.org/2000/svg">

    <g id="code">
        <path fill-rule="evenodd" clip-rule="evenodd" d="M18.3125 42.0645L27.2623 6.6875L31.4375 7.87241L22.4878 43.3125L18.3125 42.0645Z" fill="#7572D5"/>
        <path fill-rule="evenodd" clip-rule="evenodd" d="M13.5025 12.6875L16.5625 15.9278L7.99501 25.0001L16.5625 34.0721L13.5025 37.3125L1.875 25.0001L13.5025 12.6875Z" fill="#7572D5"/>
        <path fill-rule="evenodd" clip-rule="evenodd" d="M36.4976 12.6875L33.4375 15.9278L42.0051 25.0001L33.4375 34.0721L36.4976 37.3125L48.125 25.0001L36.4976 12.6875Z" fill="#7572D5"/>
    </g>

    <g id="logo">
        <path d="M3.34,0h116.2a3.35,3.35,0,0,1,3.34,3.34v77a3.35,3.35,0,0,1-3.34,3.34H3.34A3.35,3.35,0,0,1,0,80.32v-77A3.35,3.35,0,0,1,3.34,0ZM13.49,63.91a2.59,2.59,0,1,1,0-5.17H52.94a2.59,2.59,0,1,1,0,5.17Zm.15-13.28a2.59,2.59,0,0,1,0-5.17H42.4a2.59,2.59,0,0,1,0,5.17ZM13.49,37.4a2.59,2.59,0,1,1,0-5.17H33.85a2.59,2.59,0,0,1,0,5.17Zm0-13.26a2.59,2.59,0,1,1,0-5.17H25.3a2.59,2.59,0,0,1,0,5.17Zm97,26.19v6.44l-13.23,7.5v-7.5l8.52-3.24-8.52-3.2v-7.5l13.23,7.5Zm-22.92,16H82l7-27.11h5.63l-7,27.11Zm-9.41-16-8.53,3.2,8.53,3.24v7.5L65,56.77V50.33l13.24-7.5v7.5Zm5.67-38.68v3.67A1.83,1.83,0,0,1,82,17.15H79a14.43,14.43,0,0,1-1.6,3.5l2,2a1.83,1.83,0,0,1,0,2.58l-2.71,2.71a1.83,1.83,0,0,1-2.58,0l-2.18-2.18a14.43,14.43,0,0,1-3.6,1.35v2.82a1.84,1.84,0,0,1-1.83,1.83H62.63a1.84,1.84,0,0,1-1.83-1.83V26.85a14.2,14.2,0,0,1-3.5-1.59l-2,2a1.82,1.82,0,0,1-2.59,0L50,24.55A1.84,1.84,0,0,1,50,22l2.18-2.17a14.5,14.5,0,0,1-1.35-3.61H48a1.83,1.83,0,0,1-1.83-1.83v-2.7H3.09V70.84a3,3,0,0,0,3,3H116.85a3,3,0,0,0,3-3V11.65Zm-11.42,0H57.62a7.71,7.71,0,0,0-.11,1.28,7.52,7.52,0,0,0,15,0,7.71,7.71,0,0,0-.1-1.28Zm41.79-6.73a2,2,0,1,1-2,2,2,2,0,0,1,2-2Zm-13.44,0a2,2,0,1,1-2,2,2,2,0,0,1,2-2Zm6.72,0a2,2,0,1,1-2,2,2,2,0,0,1,2-2ZM46.29,88.27h30.3c.08,5.24,2.24,9.94,8.09,13.63H38.2c4.71-3.41,8.11-7.54,8.09-13.63Z" fill="#A7A7A7"/>
    </g>

    <g id="git">
        <path d="M15 0C6.71 0 0 6.71 0 15C0 21.63 4.29 27.24 10.25 29.23C11 29.36 11.28 28.91 11.28 28.51C11.28 28.16 11.26 26.98 11.26 25.72C7.5 26.41 6.52 24.8 6.22 23.96C6.05 23.53 5.32 22.2 4.68 21.84C4.16 21.56 3.41 20.86 4.66 20.85C5.84 20.83 6.69 21.93 6.97 22.38C8.32 24.65 10.48 24.01 11.34 23.62C11.47 22.64 11.86 21.99 12.3 21.61C8.96 21.24 5.47 19.95 5.47 14.21C5.47 12.58 6.05 11.23 7.01 10.18C6.86 9.8 6.33 8.26 7.16 6.2C7.16 6.2 8.41 5.81 11.28 7.74C12.48 7.4 13.76 7.23 15.03 7.23C16.31 7.23 17.58 7.4 18.78 7.74C21.65 5.79 22.91 6.2 22.91 6.2C23.73 8.26 23.21 9.8 23.06 10.18C24.01 11.23 24.6 12.56 24.6 14.21C24.6 19.96 21.09 21.24 17.75 21.61C18.29 22.08 18.76 22.98 18.76 24.39C18.76 26.39 18.75 28.01 18.75 28.51C18.75 28.91 19.03 29.38 19.78 29.23C22.75 28.22 25.34 26.31 27.17 23.75C29.01 21.2 29.99 18.14 30 15C30 6.71 23.28 0 15 0Z" fill="#A7A7A7" fill-opacity="1.000000" fill-rule="evenodd"/>
    </g>

    <g id="linkedin">
        <defs>
        <clipPath id="clip2_5860">
            <rect rx="-0.500000" width="29.000000" height="29.000000" transform="translate(0.500000 0.500000)" fill="white" fill-opacity="0"/>
        </clipPath>
        </defs>
        <rect rx="-0.500000" width="29.000000" height="29.000000" transform="translate(0.500000 0.500000)" fill="#FFFFFF" fill-opacity="0"/>
        <g clip-path="url(#clip2_5860)">
            <path d="M15 0.6C7.04 0.6 0.59 7.04 0.59 15C0.59 22.95 7.04 29.4 15 29.4C22.95 29.4 29.4 22.95 29.4 15C29.4 7.04 22.95 0.6 15 0.6ZM11.47 20.96L8.55 20.96L8.55 11.58L11.47 11.58L11.47 20.96ZM9.99 10.43C9.07 10.43 8.48 9.78 8.48 8.97C8.48 8.14 9.09 7.51 10.03 7.51C10.97 7.51 11.55 8.14 11.57 8.97C11.57 9.78 10.97 10.43 9.99 10.43ZM22.12 20.96L19.2 20.96L19.2 15.76C19.2 14.55 18.78 13.73 17.73 13.73C16.92 13.73 16.44 14.29 16.23 14.82C16.15 15.01 16.13 15.28 16.13 15.55L16.13 20.96L13.22 20.96L13.22 14.57C13.22 13.4 13.18 12.42 13.14 11.58L15.67 11.58L15.81 12.88L15.87 12.88C16.25 12.27 17.19 11.37 18.76 11.37C20.68 11.37 22.12 12.65 22.12 15.42L22.12 20.96Z" fill="#A7A7A7" fill-opacity="1.000000" fill-rule="nonzero"/>
        </g>
    </g>

    <g id="instagram">
        <path d="M17.25 7.288v1.269c0 .297-.241.539-.538.539h-1.269c-.299 0-.538-.242-.538-.539v-1.269c0-.297.239-.538.538-.538h1.269c.297 0 .538.241.538.538zm-5.25 7.403c1.486 0 2.693-1.205 2.693-2.692s-1.207-2.69-2.693-2.69c-1.487 0-2.691 1.204-2.691 2.691s1.204 2.691 2.691 2.691zm4.261-3.291c.028.196.046.396.046.599 0 2.38-1.928 4.308-4.307 4.308s-4.307-1.928-4.307-4.307c0-.204.018-.403.046-.599.027-.194.066-.383.118-.567h-1.107v5.879c0 .297.241.538.538.538h9.424c.297 0 .538-.241.538-.538v-5.879h-1.107c.05.184.09.373.118.566zm7.739.6c0 6.627-5.373 12-12 12s-12-5.373-12-12 5.373-12 12-12 12 5.373 12 12zm-5-5.385c0-.892-.723-1.615-1.615-1.615h-10.77c-.892 0-1.615.723-1.615 1.615v10.769c0 .893.723 1.616 1.615 1.616h10.77c.892 0 1.615-.723 1.615-1.616v-10.769z" fill="#A7A7A7" fill-opacity="1.000000" fill-rule="nonzero"/>
    </g>

</svg>
