<svg width="50" height="50" viewBox="0 0 50 50" fill="none" xmlns="http://www.w3.org/2000/svg">

    <g id="code">
        <path fill-rule="evenodd" clip-rule="evenodd" d="M18.3125 42.0645L27.2623 6.6875L31.4375 7.87241L22.4878 43.3125L18.3125 42.0645Z" fill="#7572D5"/>
        <path fill-rule="evenodd" clip-rule="evenodd" d="M13.5025 12.6875L16.5625 15.9278L7.99501 25.0001L16.5625 34.0721L13.5025 37.3125L1.875 25.0001L13.5025 12.6875Z" fill="#7572D5"/>
        <path fill-rule="evenodd" clip-rule="evenodd" d="M36.4976 12.6875L33.4375 15.9278L42.0051 25.0001L33.4375 34.0721L36.4976 37.3125L48.125 25.0001L36.4976 12.6875Z" fill="#7572D5"/>
    </g>

    <g id="logo">
        <path d="M3.34,0h116.2a3.35,3.35,0,0,1,3.34,3.34v77a3.35,3.35,0,0,1-3.34,3.34H3.34A3.35,3.35,0,0,1,0,80.32v-77A3.35,3.35,0,0,1,3.34,0ZM13.49,63.91a2.59,2.59,0,1,1,0-5.17H52.94a2.59,2.59,0,1,1,0,5.17Zm.15-13.28a2.59,2.59,0,0,1,0-5.17H42.4a2.59,2.59,0,0,1,0,5.17ZM13.49,37.4a2.59,2.59,0,1,1,0-5.17H33.85a2.59,2.59,0,0,1,0,5.17Zm0-13.26a2.59,2.59,0,1,1,0-5.17H25.3a2.59,2.59,0,0,1,0,5.17Zm97,26.19v6.44l-13.23,7.5v-7.5l8.52-3.24-8.52-3.2v-7.5l13.23,7.5Zm-22.92,16H82l7-27.11h5.63l-7,27.11Zm-9.41-16-8.53,3.2,8.53,3.24v7.5L65,56.77V50.33l13.24-7.5v7.5Zm5.67-38.68v3.67A1.83,1.83,0,0,1,82,17.15H79a14.43,14.43,0,0,1-1.6,3.5l2,2a1.83,1.83,0,0,1,0,2.58l-2.71,2.71a1.83,1.83,0,0,1-2.58,0l-2.18-2.18a14.43,14.43,0,0,1-3.6,1.35v2.82a1.84,1.84,0,0,1-1.83,1.83H62.63a1.84,1.84,0,0,1-1.83-1.83V26.85a14.2,14.2,0,0,1-3.5-1.59l-2,2a1.82,1.82,0,0,1-2.59,0L50,24.55A1.84,1.84,0,0,1,50,22l2.18-2.17a14.5,14.5,0,0,1-1.35-3.61H48a1.83,1.83,0,0,1-1.83-1.83v-2.7H3.09V70.84a3,3,0,0,0,3,3H116.85a3,3,0,0,0,3-3V11.65Zm-11.42,0H57.62a7.71,7.71,0,0,0-.11,1.28,7.52,7.52,0,0,0,15,0,7.71,7.71,0,0,0-.1-1.28Zm41.79-6.73a2,2,0,1,1-2,2,2,2,0,0,1,2-2Zm-13.44,0a2,2,0,1,1-2,2,2,2,0,0,1,2-2Zm6.72,0a2,2,0,1,1-2,2,2,2,0,0,1,2-2ZM46.29,88.27h30.3c.08,5.24,2.24,9.94,8.09,13.63H38.2c4.71-3.41,8.11-7.54,8.09-13.63Z" fill="#A7A7A7"/>
    </g>

    <g id="github">
        <path d="M15 0C6.71 0 0 6.71 0 15C0 21.63 4.29 27.24 10.25 29.23C11 29.36 11.28 28.91 11.28 28.51C11.28 28.16 11.26 26.98 11.26 25.72C7.5 26.41 6.52 24.8 6.22 23.96C6.05 23.53 5.32 22.2 4.68 21.84C4.16 21.56 3.41 20.86 4.66 20.85C5.84 20.83 6.69 21.93 6.97 22.38C8.32 24.65 10.48 24.01 11.34 23.62C11.47 22.64 11.86 21.99 12.3 21.61C8.96 21.24 5.47 19.95 5.47 14.21C5.47 12.58 6.05 11.23 7.01 10.18C6.86 9.8 6.33 8.26 7.16 6.2C7.16 6.2 8.41 5.81 11.28 7.74C12.48 7.4 13.76 7.23 15.03 7.23C16.31 7.23 17.58 7.4 18.78 7.74C21.65 5.79 22.91 6.2 22.91 6.2C23.73 8.26 23.21 9.8 23.06 10.18C24.01 11.23 24.6 12.56 24.6 14.21C24.6 19.96 21.09 21.24 17.75 21.61C18.29 22.08 18.76 22.98 18.76 24.39C18.76 26.39 18.75 28.01 18.75 28.51C18.75 28.91 19.03 29.38 19.78 29.23C22.75 28.22 25.34 26.31 27.17 23.75C29.01 21.2 29.99 18.14 30 15C30 6.71 23.28 0 15 0Z" fill="currentColor"/>
    </g>

    <g id="linkedin">
        <defs>
        <clipPath id="clip2_5860">
            <rect rx="-0.500000" width="29.000000" height="29.000000" transform="translate(0.500000 0.500000)" fill="white" fill-opacity="0"/>
        </clipPath>
        </defs>
        <rect rx="-0.500000" width="29.000000" height="29.000000" transform="translate(0.500000 0.500000)" fill="#FFFFFF" fill-opacity="0"/>
        <g clip-path="url(#clip2_5860)">
            <path d="M15 0.6C7.04 0.6 0.59 7.04 0.59 15C0.59 22.95 7.04 29.4 15 29.4C22.95 29.4 29.4 22.95 29.4 15C29.4 7.04 22.95 0.6 15 0.6ZM11.47 20.96L8.55 20.96L8.55 11.58L11.47 11.58L11.47 20.96ZM9.99 10.43C9.07 10.43 8.48 9.78 8.48 8.97C8.48 8.14 9.09 7.51 10.03 7.51C10.97 7.51 11.55 8.14 11.57 8.97C11.57 9.78 10.97 10.43 9.99 10.43ZM22.12 20.96L19.2 20.96L19.2 15.76C19.2 14.55 18.78 13.73 17.73 13.73C16.92 13.73 16.44 14.29 16.23 14.82C16.15 15.01 16.13 15.28 16.13 15.55L16.13 20.96L13.22 20.96L13.22 14.57C13.22 13.4 13.18 12.42 13.14 11.58L15.67 11.58L15.81 12.88L15.87 12.88C16.25 12.27 17.19 11.37 18.76 11.37C20.68 11.37 22.12 12.65 22.12 15.42L22.12 20.96Z" fill="#A7A7A7" fill-opacity="1.000000" fill-rule="nonzero"/>
        </g>
    </g>

    <g id="instagram">
        <path d="M17.25 7.288v1.269c0 .297-.241.539-.538.539h-1.269c-.299 0-.538-.242-.538-.539v-1.269c0-.297.239-.538.538-.538h1.269c.297 0 .538.241.538.538zm-5.25 7.403c1.486 0 2.693-1.205 2.693-2.692s-1.207-2.69-2.693-2.69c-1.487 0-2.691 1.204-2.691 2.691s1.204 2.691 2.691 2.691zm4.261-3.291c.028.196.046.396.046.599 0 2.38-1.928 4.308-4.307 4.308s-4.307-1.928-4.307-4.307c0-.204.018-.403.046-.599.027-.194.066-.383.118-.567h-1.107v5.879c0 .297.241.538.538.538h9.424c.297 0 .538-.241.538-.538v-5.879h-1.107c.05.184.09.373.118.566zm7.739.6c0 6.627-5.373 12-12 12s-12-5.373-12-12 5.373-12 12-12 12 5.373 12 12zm-5-5.385c0-.892-.723-1.615-1.615-1.615h-10.77c-.892 0-1.615.723-1.615 1.615v10.769c0 .893.723 1.616 1.615 1.616h10.77c.892 0 1.615-.723 1.615-1.616v-10.769z" fill="#A7A7A7" fill-opacity="1.000000" fill-rule="nonzero"/>
    </g>

    <g id="html">
    <!--<svg width="100" height="100" viewBox="0 0 48 48">-->
        <path fill="#E65100" d="M41,5H7l3,34l14,4l14-4L41,5L41,5z"></path>
        <path fill="#FF6D00" d="M24 8L24 39.9 35.2 36.7 37.7 8z"></path>
        <path fill="#FFF" d="M24,25v-4h8.6l-0.7,11.5L24,35.1v-4.2l4.1-1.4l0.3-4.5H24z M32.9,17l0.3-4H24v4H32.9z"></path>
        <path fill="#EEE" d="M24,30.9v4.2l-7.9-2.6L15.7,27h4l0.2,2.5L24,30.9z M19.1,17H24v-4h-9.1l0.7,12H24v-4h-4.6L19.1,17z"></path>
    </g>

    <g id="css">
    <!--<svg xmlns="http://www.w3.org/2000/svg" x="0px" y="0px" width="100" height="100" viewBox="0 0 48 48">-->
        <linearGradient id="TQDriqswrKwPOniLrPT12a_7gdY5qNXaKC0_gr1" x1="16.33" x2="32.293" y1="-2.748" y2="41.109" gradientUnits="userSpaceOnUse">
            <stop offset="0" stop-color="#2aa4f4"></stop>
            <stop offset="1" stop-color="#007ad9"></stop>
        </linearGradient>
        <path fill="url(#TQDriqswrKwPOniLrPT12a_7gdY5qNXaKC0_gr1)" d="M7.192,7.176l2.627,29.77c0.109,1.237,0.97,2.28,2.164,2.621l10.643,3.041	c0.898,0.257,1.849,0.257,2.747,0l10.643-3.041c1.194-0.341,2.055-1.383,2.164-2.621l2.627-29.77C40.911,6.006,39.99,5,38.816,5	H9.184C8.01,5,7.089,6.006,7.192,7.176z"></path>
        <path fill="#35c1f1" d="M24,8v31.9l9.876-2.822c0.797-0.228,1.371-0.924,1.443-1.749l2.286-26.242	C37.656,8.502,37.196,8,36.609,8H24z"></path>
        <path fill="#fff" d="M33.1,13H24v4h4.9l-0.3,4H24v4h4.4l-0.3,4.5L24,30.9v4.2l7.9-2.6L32.6,21l0,0L33.1,13z"></path>
        <path fill="#d6e0e9" d="M24,13v4h-8.9l-0.3-4H24z M19.4,21l0.2,4H24v-4H19.4z M19.8,27h-4l0.3,5.5l7.9,2.6v-4.2l-4.1-1.4	L19.8,27z"></path>
        <path d="M33.1,13l-0.5,8l-0.7,11.5L24,35.1l-7.9-2.6L15.8,27h4l0.1,2.5l4.1,1.4l4.1-1.4l0.3-4.5H24h-4.4l-0.2-4H24h4.6l0.3-4H24 h-8.9l-0.3-4H24H33.1 M34.164,12H33.1H24h-9.2h-1.078l0.081,1.075l0.3,4L14.172,18H15.1H24h3.822l-0.15,2H24h-4.6h-1.051 l0.052,1.05l0.2,4L18.649,26H15.8h-1.056l0.058,1.054l0.3,5.5l0.037,0.682l0.649,0.214l7.9,2.6L24,36.153l0.313-0.103l7.9-2.6 l0.644-0.212l0.041-0.677l0.7-11.5l0.5-7.998L34.164,12L34.164,12z M20.761,26H24h3.331l-0.185,2.769L24,29.843l-3.128-1.068 l-0.073-1.815L20.761,26L20.761,26z" opacity=".05"></path>
        <path d="M33.1,13l-0.5,8l-0.7,11.5L24,35.1l-7.9-2.6L15.8,27h4l0.1,2.5l4.1,1.4l4.1-1.4l0.3-4.5H24h-4.4l-0.2-4H24h4.6l0.3-4H24 h-8.9l-0.3-4H24H33.1 M33.632,12.5H33.1H24h-9.2h-0.539l0.04,0.537l0.3,4l0.035,0.463H15.1H24h4.361l-0.225,3H24h-4.6h-0.526 l0.026,0.525l0.2,4l0.024,0.475H19.6H24h3.866l-0.242,3.634L24,30.372l-3.614-1.234L20.3,26.98L20.28,26.5H19.8h-4h-0.528 l0.029,0.527l0.3,5.5l0.019,0.341l0.324,0.107l7.9,2.6L24,35.626l0.156-0.051l7.9-2.6l0.322-0.106l0.021-0.339l0.7-11.5l0.5-7.999 L33.632,12.5L33.632,12.5z" opacity=".07"></path>
    </g>

    <g id="js">
    <!--<svg xmlns="http://www.w3.org/2000/svg" x="0px" y="0px" width="100" height="100" viewBox="0 0 48 48">-->
        <path fill="#f7df1e" d="M6,42V6h36v36H6z"></path>
        <path fill="#000001" d="M29.538,32.947c0.692,1.124,1.444,2.201,3.037,2.201c1.338,0,2.04-0.665,2.04-1.585 c0-1.101-0.726-1.492-2.198-2.133l-0.807-0.344c-2.329-0.988-3.878-2.226-3.878-4.841c0-2.41,1.845-4.244,4.728-4.244 c2.053,0,3.528,0.711,4.592,2.573l-2.514,1.607c-0.553-0.988-1.151-1.377-2.078-1.377c-0.946,0-1.545,0.597-1.545,1.377 c0,0.964,0.6,1.354,1.985,1.951l0.807,0.344C36.452,29.645,38,30.839,38,33.523C38,36.415,35.716,38,32.65,38 c-2.999,0-4.702-1.505-5.65-3.368L29.538,32.947z M17.952,33.029c0.506,0.906,1.275,1.603,2.381,1.603 c1.058,0,1.667-0.418,1.667-2.043V22h3.333v11.101c0,3.367-1.953,4.899-4.805,4.899c-2.577,0-4.437-1.746-5.195-3.368 L17.952,33.029z"></path>
    </g>

    <g id="react">
    <!--<svg xmlns="http://www.w3.org/2000/svg" x="0px" y="0px" width="100" height="100" viewBox="0 0 48 48">-->
        <path fill="#80deea" d="M24,34C11.1,34,1,29.6,1,24c0-5.6,10.1-10,23-10c12.9,0,23,4.4,23,10C47,29.6,36.9,34,24,34z M24,16	c-12.6,0-21,4.1-21,8c0,3.9,8.4,8,21,8s21-4.1,21-8C45,20.1,36.6,16,24,16z"></path>
        <path fill="#80deea" d="M15.1,44.6c-1,0-1.8-0.2-2.6-0.7C7.6,41.1,8.9,30.2,15.3,19l0,0c3-5.2,6.7-9.6,10.3-12.4c3.9-3,7.4-3.9,9.8-2.5	c2.5,1.4,3.4,4.9,2.8,9.8c-0.6,4.6-2.6,10-5.6,15.2c-3,5.2-6.7,9.6-10.3,12.4C19.7,43.5,17.2,44.6,15.1,44.6z M32.9,5.4	c-1.6,0-3.7,0.9-6,2.7c-3.4,2.7-6.9,6.9-9.8,11.9l0,0c-6.3,10.9-6.9,20.3-3.6,22.2c1.7,1,4.5,0.1,7.6-2.3c3.4-2.7,6.9-6.9,9.8-11.9	c2.9-5,4.8-10.1,5.4-14.4c0.5-4-0.1-6.8-1.8-7.8C34,5.6,33.5,5.4,32.9,5.4z"></path>
        <path fill="#80deea" d="M33,44.6c-5,0-12.2-6.1-17.6-15.6C8.9,17.8,7.6,6.9,12.5,4.1l0,0C17.4,1.3,26.2,7.8,32.7,19	c3,5.2,5,10.6,5.6,15.2c0.7,4.9-0.3,8.3-2.8,9.8C34.7,44.4,33.9,44.6,33,44.6z M13.5,5.8c-3.3,1.9-2.7,11.3,3.6,22.2	c6.3,10.9,14.1,16.1,17.4,14.2c1.7-1,2.3-3.8,1.8-7.8c-0.6-4.3-2.5-9.4-5.4-14.4C24.6,9.1,16.8,3.9,13.5,5.8L13.5,5.8z"></path>
        <circle cx="24" cy="24" r="4" fill="#80deea"></circle>
    </g>

    <g id="redux">
    <!--<svg xmlns="http://www.w3.org/2000/svg" x="0px" y="0px" width="100" height="100" viewBox="0 0 48 48">-->
<path fill="#7e57c2" d="M23,4c-6.617,0-12,7.27-12,16.205c0,4.834,1.582,9.169,4.078,12.136C15.03,32.554,15,32.773,15,33	c0,1.657,1.343,3,3,3s3-1.343,3-3s-1.343-3-3-3c-0.315,0-0.612,0.062-0.897,0.152C15.206,27.731,14,24.175,14,20.205	C14,12.924,18.037,7,23,7c3.837,0,7.111,3.547,8.404,8.518c1.122,0.346,2.237,0.782,3.33,1.308C33.579,9.508,28.759,4,23,4z"></path><path fill="#7e57c2" d="M35.507,20.084c-3.947-2.392-8.374-3.442-12.182-2.959C22.775,16.444,21.943,16,21,16	c-1.657,0-3,1.343-3,3s1.343,3,3,3c1.272,0,2.353-0.795,2.789-1.912c3.118-0.379,6.812,0.531,10.163,2.563	c6.403,3.881,9.67,10.569,7.282,14.911c-0.827,1.504-2.286,2.572-4.218,3.09c-2.286,0.611-5.007,0.394-7.727-0.528	c-0.839,0.772-1.749,1.498-2.725,2.168c2.552,1.117,5.196,1.704,7.669,1.704c1.24,0,2.438-0.147,3.559-0.447	c2.741-0.733,4.841-2.304,6.071-4.542C47.016,33.276,43.267,24.787,35.507,20.084z"></path><path fill="#7e57c2" d="M35,28.992C35,27.34,33.657,26,32,26s-3,1.34-3,2.992c0,0.669,0.228,1.281,0.6,1.779	c-1.279,2.802-3.744,5.567-7.062,7.578c-3.865,2.344-8.185,3.202-11.555,2.302c-1.932-0.518-3.391-1.586-4.218-3.09	c-1.702-3.094-0.521-7.376,2.61-10.988c-0.323-1.144-0.562-2.34-0.706-3.575c-5.07,4.797-7.109,11.323-4.532,16.009	c1.23,2.238,3.33,3.809,6.071,4.542c1.121,0.3,2.318,0.447,3.559,0.447c3.346,0,7.007-1.068,10.326-3.08	c3.836-2.325,6.683-5.577,8.209-8.962C33.815,31.801,35,30.541,35,28.992z"></path>
    </g>

    <g id="bootstrap">
    <!--< xmlns="http://www.w3.org/2000/svg" x="0px" y="0px" width="100" height="100" viewBox="0 0 48 48">-->
<path fill="#673ab7" d="M42,37c0,2.762-2.238,5-5,5H11c-2.761,0-5-2.238-5-5V11c0-2.762,2.239-5,5-5h26c2.762,0,5,2.238,5,5 V37z"></path><path fill="#fff" d="M33.03,25.6c-0.65-0.9-1.59-1.52-2.8-1.85c0,0,1.02-0.37,1.94-1.75c0.55-0.88,0.83-1.94,0.83-3.18 c0-2.15-0.78-3.8-2.34-4.93C29.1,12.76,27.34,12,24.35,12H15v24h10.43c2.83-0.02,4.96-0.63,6.41-1.8c1.44-1.19,2.16-2.95,2.16-5.3 C34,27.6,33.68,26.5,33.03,25.6z M21,16c0,0,4.17,0,4.25,0c1.52,0,2.75,1.23,2.75,2.75c0,1.52-1.23,2.75-2.75,2.75 c-0.08,0-4.25,0-4.25,0V16z M26,32h-5v-6h5c1.66,0,3,1.34,3,3C29,30.66,27.66,32,26,32z"></path>

    </g>

    <g id="styledcomponents">
	<defs>
		<clipPath id="clip1_3263">
			<rect id="icon" rx="-0.234375" width="119.531250" height="119.531250" transform="translate(0.234375 0.234375)" fill="white" fill-opacity="0"/>
		</clipPath>
	</defs>
	<rect id="icon" rx="-0.234375" width="119.531250" height="119.531250" transform="translate(0.234375 0.234375)" fill="#FFFFFF" fill-opacity="0"/>
	<g clip-path="url(#clip1_3263)">
		<path id="Vector" d="M68.76 118.27C68.94 117.87 69.4 117.58 69.73 117.24C74.76 111.96 79.84 106.73 84.81 101.39C86.36 99.95 87.56 98.18 88.31 96.2C89.07 94.22 89.36 92.1 89.15 89.99C89 89.09 88.79 88.2 88.54 87.32C87.18 88.6 85.92 89.77 84.66 90.95C82.68 92.79 80.72 94.63 78.73 96.44C77.56 97.64 76.05 98.45 74.41 98.77C72.77 99.09 71.06 98.9 69.53 98.24C67.97 97.67 66.62 96.65 65.64 95.32C64.66 93.98 64.09 92.39 64 90.74C63.96 90.52 63.89 90.32 63.82 90.11C62.3 91.4 60.86 92.58 59.42 93.8L29.58 119.08C29.38 119.26 29.15 119.47 28.96 119.65L68.74 119.65L68.68 119.61C68.47 119.46 68.58 118.67 68.76 118.27Z" fill="#FFCEBF" fill-opacity="1.000000" fill-rule="nonzero"/>
		<path id="Vector" d="M27.14 118.27C27.49 117.81 27.92 117.41 28.4 117.09L69.69 82.06C72.51 79.67 75.32 77.26 78.11 74.85C78.45 74.61 78.72 74.27 78.89 73.89C79.55 70.98 79.65 67.97 79.17 65.02C78.74 65.32 78.51 65.45 78.31 65.66C74.93 68.69 71.56 71.74 68.17 74.74C67.04 75.88 65.58 76.62 64.01 76.88C62.43 77.13 60.81 76.88 59.39 76.15C57.94 75.47 56.72 74.37 55.9 72.99C55.07 71.61 54.68 70.02 54.76 68.41L54.76 67.02C54.14 67.48 53.69 67.78 53.26 68.12C36.73 81.36 20.21 94.58 3.69 107.79C2.94 108.39 2.05 109.72 1.08 108.43C0.1 107.14 1.59 106.61 2.34 106.01C19.95 91.87 37.57 77.75 55.2 63.65C58.07 61.34 58.26 60.38 56.39 56.73L55.28 57.77C52.22 60.61 49.13 63.41 46.12 66.3C44.89 67.49 43.34 68.31 41.66 68.66C39.99 69.01 38.24 68.88 36.64 68.28C35.03 67.68 33.63 66.64 32.59 65.27C31.55 63.91 30.91 62.28 30.76 60.57C30.19 61 29.7 61.31 29.23 61.68L3.09 81.94C2.64 82.38 2.13 82.75 1.56 83.04C1.14 83.17 0.69 83.15 0.28 82.98L0.28 119.67L27.09 119.67C26.99 119.45 26.94 119.21 26.95 118.96C26.96 118.72 27.02 118.49 27.14 118.27Z" fill="#FFCEBF" fill-opacity="1.000000" fill-rule="nonzero"/>
		<path id="Vector" d="M99.56 1.82C98.83 4.2 98.12 6.59 97.49 9.01C96.9 10.71 96.97 12.58 97.68 14.23C98.39 15.89 99.7 17.22 101.34 17.96C106.37 20.61 112.04 21.79 117.7 21.39L117.7 2.22C117.64 1.8 117.66 1.37 117.77 0.96C117.89 0.73 118.04 0.52 118.22 0.32L99.54 0.32C99.83 0.66 99.73 1.25 99.56 1.82Z" fill="#FF6196" fill-opacity="1.000000" fill-rule="nonzero"/>
		<path id="Vector" d="M62.05 42.99C61.96 45.13 61.21 47.19 59.9 48.89C55.24 54.91 49.88 60.37 43.94 65.14C42.98 66.03 41.76 66.59 40.47 66.74C39.17 66.89 37.86 66.63 36.72 66C35.59 65.51 34.63 64.69 33.98 63.64C33.34 62.59 33.03 61.36 33.11 60.13C33.25 58.62 33.87 57.2 34.9 56.08C41.54 49.74 48.74 44.01 56.4 38.96C56.9 38.57 57.52 38.34 58.16 38.32C58.79 38.29 59.42 38.47 59.96 38.82C60.65 39.25 61.22 39.87 61.59 40.61C61.96 41.35 62.12 42.17 62.05 42.99Z" fill="#FF87AF" fill-opacity="1.000000" fill-rule="nonzero"/>
		<path id="Vector" d="M56.91 68.97C56.81 68.02 56.93 67.06 57.26 66.17C57.6 65.28 58.13 64.47 58.83 63.82C65.33 57.82 72.31 52.36 79.7 47.48C79.92 47.34 80.12 47.2 80.37 47.05C81.01 46.59 81.8 46.35 82.59 46.38C83.39 46.41 84.15 46.7 84.76 47.2C85.35 47.71 85.77 48.38 85.96 49.13C86.14 49.89 86.09 50.68 85.8 51.4C84.86 54.51 83.14 57.33 80.79 59.58C76.03 64.27 71.17 68.87 66.22 73.37C65.48 74.14 64.5 74.64 63.44 74.79C62.38 74.94 61.31 74.73 60.38 74.2C59.4 73.69 58.57 72.94 57.97 72.03C57.36 71.11 57 70.06 56.91 68.97Z" fill="#FF87AF" fill-opacity="1.000000" fill-rule="nonzero"/>
		<path id="Vector" d="M87.83 71.8C86.63 73.08 85.4 74.31 84.24 75.62C83.9 76.13 83.61 76.68 83.39 77.25C84.02 77.44 84.76 77.94 85.28 77.76C87.89 76.88 90.45 75.83 93.32 74.72C92.7 76.16 92.23 77.49 91.56 78.7C88.83 83.3 85.4 87.45 81.4 91.01C79.88 92.48 78.3 93.88 76.67 95.22C75.8 95.93 74.76 96.41 73.65 96.6C72.53 96.78 71.39 96.67 70.34 96.26C69.29 95.86 68.36 95.19 67.65 94.31C66.95 93.44 66.49 92.39 66.32 91.27C66.25 90.65 66.3 90.03 66.48 89.43C66.65 88.83 66.95 88.27 67.34 87.79C73.17 81.46 79.83 75.95 87.15 71.41C87.24 71.37 87.33 71.35 87.43 71.35L87.83 71.8Z" fill="#FF87AF" fill-opacity="1.000000" fill-rule="nonzero"/>
		<path id="Vector" d="M97.67 54.73L105 22.16L110.14 23.37L107.49 31.43C105.01 38.92 102.51 46.42 100.09 53.93C99.62 55.32 99 55.58 97.67 54.73Z" fill="#FF6196" fill-opacity="1.000000" fill-rule="nonzero"/>
		<path id="Vector" d="M89.38 73.88C90.16 70.92 90.93 68.18 91.58 65.42C92.21 62.73 93.42 60.22 95.12 58.04C96.16 56.67 97.33 57.22 98.53 57.51C99.63 57.78 99.91 58.59 99.96 59.66C100.13 62.6 99.24 65.5 97.44 67.83C95.3 70.48 92.53 72.56 89.38 73.88Z" fill="#FF6196" fill-opacity="1.000000" fill-rule="nonzero"/>
		<path id="Vector" d="M119.94 3.83C120 2.88 119.98 1.92 119.87 0.97C119.78 0.71 119.6 0.48 119.37 0.32C119.18 0.17 118.96 0.06 118.72 0C118.58 -0.02 118.39 0.12 118.2 0.32C118.03 0.51 117.87 0.73 117.75 0.96C117.65 1.37 117.62 1.8 117.69 2.22L117.69 21.38C112.02 21.78 106.35 20.6 101.32 17.95C99.68 17.21 98.37 15.88 97.66 14.22C96.95 12.57 96.88 10.7 97.47 9C98.11 6.59 98.81 4.19 99.54 1.81C99.71 1.24 99.81 0.65 99.54 0.32C99.39 0.15 99.18 0.06 98.96 0.04C98.68 0.05 98.41 0.14 98.18 0.32C97.86 0.51 97.61 0.79 97.45 1.13C96.59 3.7 95.84 6.3 95.18 8.92C94.94 9.95 94.87 11.02 94.99 12.08C95.15 13.99 95.86 15.81 97.03 17.33C98.21 18.85 99.79 20 101.59 20.65C102.4 20.99 102.88 21.32 102.65 22.39C102.34 23.74 102.04 25.1 101.73 26.46C99.63 35.66 97.54 44.87 95.46 54.08C95.4 54.49 95.22 54.88 94.94 55.18C93.57 56.27 92.42 57.61 91.55 59.13C90.44 61.13 89.68 63.3 89.28 65.55C89.21 66.27 88.95 66.96 88.53 67.55C88.11 68.14 87.55 68.61 86.89 68.92C85.1 69.82 83.46 70.99 81.48 72.21C81.61 69.82 81.59 67.43 81.4 65.05C81.25 64.32 81.28 63.56 81.5 62.84C81.71 62.12 82.09 61.47 82.62 60.93C85.23 58.35 87.1 55.1 88.01 51.53C88.28 50.71 88.36 49.83 88.23 48.97C88.1 48.11 87.77 47.29 87.27 46.58C86.76 45.87 86.1 45.29 85.33 44.89C84.56 44.48 83.7 44.26 82.83 44.25C81.42 44.23 80.04 44.63 78.85 45.38C74.76 48.17 70.75 51.07 66.8 54.06C64.46 55.83 62.25 57.78 59.98 59.63C59.88 59.53 59.8 59.41 59.73 59.28C59.68 58.97 59.6 58.66 59.47 58.37C57.58 55.44 58.89 53.31 60.95 51.12C63.1 48.87 64.29 45.87 64.26 42.76C64.33 41.17 63.83 39.61 62.86 38.36C62.34 37.72 61.7 37.2 60.98 36.8C59.96 36.24 58.79 36.01 57.62 36.13C56.46 36.26 55.37 36.73 54.48 37.5L53.29 38.36C50.56 40.31 47.79 42.21 45.17 44.3C41.33 47.37 37.58 50.53 33.91 53.79C32.2 55.3 30.95 57.37 29.17 58.78C19.9 66.1 10.52 73.29 1.19 80.53C0.87 80.72 0.57 80.95 0.31 81.22C0.28 81.26 0.26 81.3 0.24 81.34C0.04 81.8 -0.12 82.56 0.11 82.84C0.16 82.9 0.23 82.95 0.31 82.98C0.72 83.15 1.17 83.17 1.59 83.04C2.15 82.75 2.67 82.38 3.12 81.94L29.26 61.68C29.73 61.31 30.22 60.98 30.79 60.57C30.94 62.28 31.58 63.91 32.62 65.27C33.66 66.63 35.06 67.68 36.67 68.27C38.27 68.87 40.02 69.01 41.69 68.66C43.37 68.31 44.92 67.49 46.15 66.3C49.15 63.41 52.25 60.61 55.31 57.77L56.42 56.72C58.29 60.38 58.1 61.34 55.23 63.64C37.58 77.76 19.95 91.88 2.34 106.01C1.59 106.61 0.1 107.15 1.08 108.43C2.05 109.71 2.94 108.39 3.69 107.79C20.22 94.59 36.74 81.37 53.24 68.14C53.67 67.8 54.12 67.49 54.74 67.04L54.74 68.43C54.66 70.03 55.05 71.62 55.88 73C56.7 74.38 57.92 75.48 59.37 76.17C60.8 76.89 62.41 77.15 63.99 76.89C65.57 76.64 67.02 75.89 68.15 74.76C71.55 71.76 74.91 68.7 78.29 65.67C78.51 65.48 78.75 65.34 79.15 65.04C79.63 67.98 79.54 70.99 78.87 73.9C78.7 74.29 78.43 74.62 78.09 74.86C75.3 77.28 72.49 79.68 69.68 82.07L28.4 117.11C27.92 117.43 27.49 117.83 27.14 118.29C27.03 118.5 26.96 118.74 26.95 118.97C26.94 119.21 26.99 119.45 27.09 119.67C27.28 119.81 27.5 119.91 27.74 119.96C27.98 120.01 28.22 120 28.46 119.94C28.64 119.88 28.81 119.79 28.96 119.66C29.17 119.49 29.38 119.27 29.58 119.09L59.41 93.81C60.85 92.59 62.3 91.39 63.81 90.13C63.89 90.33 63.95 90.54 64 90.75C64.08 92.41 64.65 94 65.63 95.33C66.62 96.66 67.97 97.68 69.52 98.25C71.06 98.92 72.76 99.1 74.4 98.78C76.05 98.46 77.56 97.65 78.73 96.45C80.72 94.64 82.68 92.8 84.65 90.97C85.94 89.79 87.18 88.6 88.53 87.33C88.78 88.21 88.99 89.1 89.15 90.01C89.34 92.1 89.05 94.22 88.3 96.19C87.55 98.16 86.35 99.93 84.8 101.36C79.83 106.71 74.76 111.94 69.72 117.21C69.39 117.56 68.94 117.84 68.76 118.25C68.58 118.65 68.46 119.45 68.67 119.62L68.73 119.66C69.18 119.88 69.69 119.95 70.18 119.88C70.32 119.85 70.44 119.77 70.53 119.66C70.65 119.54 70.77 119.38 70.88 119.27C74.96 115.05 79.06 110.85 83.11 106.61C84.75 104.95 86.28 103.2 87.71 101.37C89.58 99.3 90.82 96.74 91.28 94C91.74 91.25 91.41 88.43 90.33 85.87C90.21 85.3 90.33 84.7 90.65 84.22C90.92 83.74 91.23 83.27 91.55 82.81C92.56 81.49 93.41 80.05 94.06 78.52C95.33 74.77 97.28 71.28 99.8 68.24C100.96 66.76 101.76 65.04 102.14 63.2C102.51 61.36 102.44 59.46 101.95 57.66C101.77 56.97 101.77 56.25 101.95 55.56C104.11 48.85 106.35 42.15 108.56 35.45L111.51 26.48L112.43 23.71C114.37 23.71 116.21 23.67 118.03 23.71C119.55 23.75 120.01 23.04 120 21.57C119.91 15.65 119.94 9.74 119.94 3.83ZM43.93 65.14C42.97 66.03 41.76 66.59 40.46 66.74C39.17 66.89 37.86 66.63 36.72 66C35.58 65.51 34.63 64.69 33.98 63.64C33.33 62.59 33.03 61.36 33.1 60.13C33.24 58.62 33.87 57.2 34.89 56.08C41.53 49.74 48.73 44.01 56.4 38.96C56.82 38.67 57.29 38.46 57.79 38.36C58.13 38.3 58.48 38.3 58.81 38.36C59.22 38.44 59.6 38.6 59.95 38.82C60.65 39.25 61.22 39.87 61.59 40.61C61.96 41.35 62.11 42.18 62.04 43C61.95 45.14 61.2 47.2 59.9 48.89C55.23 54.92 49.87 60.37 43.93 65.14ZM66.22 73.4C65.47 74.17 64.49 74.67 63.43 74.82C62.38 74.97 61.3 74.76 60.37 74.23C59.39 73.72 58.56 72.97 57.96 72.05C57.35 71.14 56.98 70.08 56.9 68.98C56.8 68.04 56.92 67.08 57.25 66.19C57.59 65.29 58.12 64.49 58.82 63.84C65.32 57.84 72.3 52.38 79.69 47.5C79.91 47.36 80.12 47.22 80.36 47.07C81.01 46.61 81.79 46.37 82.58 46.4C83.38 46.42 84.14 46.71 84.75 47.22C85.35 47.72 85.76 48.4 85.95 49.15C86.14 49.91 86.08 50.7 85.79 51.42C84.86 54.53 83.13 57.35 80.78 59.59C76.06 64.32 71.14 68.86 66.22 73.39L66.22 73.4ZM91.55 78.72C88.81 83.31 85.39 87.46 81.4 91.01C79.88 92.48 78.3 93.88 76.67 95.22C75.8 95.94 74.76 96.41 73.65 96.6C72.53 96.78 71.39 96.67 70.34 96.27C69.29 95.86 68.36 95.19 67.65 94.31C66.95 93.44 66.49 92.39 66.32 91.27C66.25 90.65 66.3 90.03 66.48 89.43C66.65 88.83 66.95 88.27 67.34 87.79C73.17 81.46 79.83 75.95 87.15 71.41C87.24 71.37 87.33 71.35 87.43 71.35L87.86 71.78C86.66 73.07 85.42 74.29 84.27 75.61C83.92 76.12 83.63 76.66 83.41 77.24C84.05 77.42 84.79 77.92 85.3 77.75C87.37 77.05 89.41 76.25 91.59 75.39L93.35 74.7C92.69 76.16 92.22 77.49 91.55 78.71L91.55 78.72ZM97.43 67.86C95.83 69.89 93.83 71.58 91.55 72.8C90.84 73.19 90.12 73.56 89.37 73.9C90.14 70.98 90.9 68.28 91.55 65.55L91.57 65.43C92.21 62.75 93.41 60.23 95.11 58.06C96.15 56.69 97.32 57.24 98.52 57.53C99.62 57.8 99.9 58.61 99.95 59.67C100.12 62.61 99.23 65.51 97.44 67.84L97.43 67.86ZM107.46 31.44C104.98 38.93 102.47 46.43 100.06 53.94C99.6 55.35 98.98 55.61 97.65 54.76L104.01 26.51L104.98 22.17L110.13 23.37L109.09 26.51L107.46 31.44Z" fill="#000000" fill-opacity="1.000000" fill-rule="nonzero"/>
	</g>
    </g>

    <g id="typescript">
    <!--< xmlns="http://www.w3.org/2000/svg" x="0px" y="0px" width="100" height="100" viewBox="0 0 48 48">-->
<rect width="36" height="36" x="6" y="6" fill="#1976d2"></rect><polygon fill="#fff" points="27.49,22 14.227,22 14.227,25.264 18.984,25.264 18.984,40 22.753,40 22.753,25.264 27.49,25.264"></polygon><path fill="#fff" d="M39.194,26.084c0,0-1.787-1.192-3.807-1.192s-2.747,0.96-2.747,1.986 c0,2.648,7.381,2.383,7.381,7.712c0,8.209-11.254,4.568-11.254,4.568V35.22c0,0,2.152,1.622,4.733,1.622s2.483-1.688,2.483-1.92 c0-2.449-7.315-2.449-7.315-7.878c0-7.381,10.658-4.469,10.658-4.469L39.194,26.084z"></path>

    </g>

    <g id="figma">
    <!--< xmlns="http://www.w3.org/2000/svg" x="0px" y="0px" width="100" height="100" viewBox="0 0 48 48">-->
<path fill="#e64a19" d="M26,17h-8c-3.866,0-7-3.134-7-7v0c0-3.866,3.134-7,7-7h8V17z"></path><path fill="#7c4dff" d="M25,31h-7c-3.866,0-7-3.134-7-7v0c0-3.866,3.134-7,7-7h7V31z"></path><path fill="#66bb6a" d="M18,45L18,45c-3.866,0-7-3.134-7-7v0c0-3.866,3.134-7,7-7h7v7C25,41.866,21.866,45,18,45z"></path><path fill="#ff7043" d="M32,17h-7V3h7c3.866,0,7,3.134,7,7v0C39,13.866,35.866,17,32,17z"></path><circle cx="32" cy="24" r="7" fill="#29b6f6"></circle>

    </g>

    <g id="materialui">
    <!--< xmlns="http://www.w3.org/2000/svg" x="0px" y="0px" width="100" height="100" viewBox="0 0 48 48">-->
<polygon fill="#29b6f6" points="1,5 7,9 7,29 1,25"></polygon><polygon fill="#0288d1" points="47,20 41,24 41,37 47,33"></polygon><polygon fill="#0288d1" points="47,6 41,10 41,17 47,13"></polygon><polygon fill="#0288d1" points="35,5 29,9 29,29 35,25"></polygon><polygon fill="#29b6f6" points="1,12 18,23 18,16 1,5"></polygon><polygon fill="#0288d1" points="35,12 18,23 18,16 35,5"></polygon><polygon fill="#0288d1" points="35,26 18,37 18,30 35,19"></polygon><polygon fill="#0288d1" points="47,34 30,45 30,38 47,27"></polygon><polygon fill="#29b6f6" points="30,37.765 18,30 18,37 30,44.765"></polygon>

    </g>

    <g id="saas">
    <!--<svg xmlns="http://www.w3.org/2000/svg" x="0px" y="0px" width="100" height="100" viewBox="0 0 48 48">-->
<path fill="#f06292" d="M39.867,25.956c-1.538,0.008-2.87,0.377-3.986,0.928c-0.408-0.815-0.822-1.532-0.891-2.065	c-0.081-0.622-0.175-0.994-0.077-1.735c0.098-0.741,0.527-1.791,0.521-1.87c-0.006-0.079-0.096-0.456-0.983-0.463	c-0.887-0.006-1.646,0.171-1.735,0.405c-0.089,0.234-0.26,0.761-0.366,1.311c-0.155,0.804-1.771,3.673-2.688,5.173	c-0.3-0.586-0.555-1.102-0.608-1.51c-0.081-0.622-0.175-0.994-0.077-1.735c0.098-0.741,0.527-1.791,0.521-1.87	c-0.006-0.079-0.096-0.456-0.983-0.463c-0.887-0.006-1.646,0.171-1.735,0.405c-0.089,0.234-0.185,0.781-0.366,1.311	c-0.182,0.529-2.329,5.314-2.892,6.555c-0.287,0.632-0.536,1.14-0.712,1.486c-0.001-0.001-0.001-0.002-0.001-0.002	s-0.011,0.023-0.029,0.062c-0.151,0.295-0.24,0.458-0.24,0.458s0.001,0.002,0.003,0.006c-0.12,0.217-0.248,0.418-0.311,0.418	c-0.044,0-0.133-0.577,0.019-1.369c0.32-1.66,1.087-4.248,1.08-4.338c-0.004-0.046,0.143-0.497-0.501-0.733	c-0.626-0.229-0.849,0.153-0.906,0.154c-0.055,0.001-0.096,0.135-0.096,0.135s0.697-2.911-1.33-2.911	c-1.268,0-3.024,1.387-3.889,2.644c-0.546,0.298-1.715,0.936-2.954,1.617c-0.476,0.262-0.962,0.529-1.423,0.783	c-0.031-0.035-0.063-0.069-0.095-0.104c-2.459-2.623-7.003-4.478-6.811-8.005c0.07-1.282,0.516-4.658,8.733-8.752	c6.731-3.354,12.12-2.431,13.051-0.386c1.33,2.923-2.88,8.354-9.87,9.138c-2.663,0.299-4.066-0.734-4.415-1.118	c-0.367-0.405-0.422-0.423-0.559-0.347c-0.223,0.124-0.082,0.481,0,0.694c0.209,0.543,1.065,1.506,2.525,1.986	c1.285,0.422,4.412,0.653,8.193-0.81c4.236-1.638,7.543-6.196,6.571-10.005c-0.988-3.874-7.412-5.148-13.492-2.988	C12.44,9.332,8.523,11.35,5.706,13.984c-3.349,3.132-3.883,5.859-3.663,6.998c0.782,4.048,6.361,6.684,8.595,8.637	c-0.11,0.061-0.214,0.118-0.308,0.17c-1.12,0.554-5.373,2.78-6.437,5.131c-1.207,2.667,0.192,4.581,1.118,4.839	c2.869,0.798,5.813-0.638,7.396-2.998c1.582-2.359,1.389-5.432,0.663-6.834c-0.009-0.017-0.019-0.034-0.028-0.052	c0.289-0.171,0.584-0.345,0.876-0.517c0.57-0.335,1.13-0.647,1.615-0.911c-0.272,0.744-0.471,1.637-0.574,2.926	c-0.122,1.514,0.499,3.471,1.311,4.241c0.358,0.339,0.788,0.347,1.06,0.347c0.945,0,1.376-0.786,1.851-1.716	c0.582-1.14,1.099-2.468,1.099-2.468s-0.648,3.586,1.118,3.586c0.644,0,1.291-0.835,1.58-1.26c0.001,0.005,0.001,0.007,0.001,0.007	s0.017-0.028,0.05-0.083c0.067-0.102,0.105-0.167,0.105-0.167s0.001-0.007,0.003-0.019c0.259-0.449,0.833-1.473,1.693-3.162	c1.112-2.182,2.178-4.916,2.178-4.916s0.099,0.668,0.424,1.774c0.191,0.65,0.597,1.369,0.918,2.059	c-0.258,0.358-0.416,0.563-0.416,0.563s0.001,0.004,0.004,0.011c-0.206,0.274-0.437,0.569-0.679,0.857	c-0.878,1.045-1.923,2.239-2.063,2.583c-0.165,0.406-0.126,0.704,0.193,0.945c0.233,0.175,0.647,0.203,1.08,0.174	c0.789-0.053,1.343-0.249,1.617-0.368c0.427-0.151,0.924-0.388,1.39-0.731c0.861-0.633,1.38-1.538,1.33-2.738	c-0.028-0.661-0.238-1.316-0.505-1.934c0.078-0.112,0.156-0.226,0.235-0.34c1.357-1.984,2.41-4.164,2.41-4.164	s0.099,0.668,0.424,1.774c0.164,0.559,0.489,1.17,0.781,1.768c-1.276,1.037-2.067,2.242-2.342,3.032	c-0.508,1.462-0.11,2.124,0.636,2.275c0.338,0.068,0.816-0.087,1.175-0.239c0.447-0.148,0.984-0.395,1.486-0.764	c0.861-0.633,1.689-1.519,1.639-2.718c-0.023-0.546-0.171-1.088-0.372-1.608c1.082-0.451,2.482-0.701,4.266-0.493	c3.827,0.447,4.577,2.836,4.434,3.836c-0.144,1-0.946,1.55-1.215,1.716c-0.268,0.166-0.35,0.224-0.328,0.347	c0.033,0.179,0.157,0.173,0.386,0.134c0.315-0.053,2.009-0.813,2.082-2.659C46.089,28.509,43.844,25.935,39.867,25.956z M10.37,35.9	c-1.268,1.383-3.038,1.905-3.798,1.465c-0.82-0.475-0.495-2.511,1.06-3.979c0.948-0.894,2.172-1.718,2.984-2.225	c0.185-0.111,0.456-0.274,0.786-0.472c0.055-0.031,0.086-0.048,0.086-0.048l-0.001-0.002c0.064-0.038,0.129-0.077,0.196-0.118	C12.25,32.61,11.701,34.449,10.37,35.9z M19.605,29.623c-0.441,1.076-1.365,3.83-1.928,3.682c-0.483-0.127-0.777-2.22-0.096-4.28	c0.342-1.037,1.074-2.276,1.504-2.757c0.692-0.774,1.454-1.027,1.639-0.713C20.959,25.955,19.882,28.948,19.605,29.623z M27.234,33.263c-0.187,0.098-0.359,0.159-0.438,0.112c-0.059-0.035,0.077-0.164,0.077-0.164s0.954-1.027,1.33-1.494	c0.219-0.272,0.472-0.595,0.748-0.955c0.002,0.036,0.003,0.072,0.003,0.107C28.952,32.099,27.764,32.929,27.234,33.263z M33.111,31.923c-0.14-0.099-0.116-0.42,0.343-1.421c0.18-0.393,0.592-1.054,1.306-1.686c0.083,0.26,0.133,0.509,0.132,0.741	C34.883,31.105,33.779,31.683,33.111,31.923z"></path>

    </g>

    <g id="git">
    <!--<svg xmlns="http://www.w3.org/2000/svg" x="0px" y="0px" width="100" height="100" viewBox="0 0 48 48">-->
<path fill="#F4511E" d="M42.2,22.1L25.9,5.8C25.4,5.3,24.7,5,24,5c0,0,0,0,0,0c-0.7,0-1.4,0.3-1.9,0.8l-3.5,3.5l4.1,4.1c0.4-0.2,0.8-0.3,1.3-0.3c1.7,0,3,1.3,3,3c0,0.5-0.1,0.9-0.3,1.3l4,4c0.4-0.2,0.8-0.3,1.3-0.3c1.7,0,3,1.3,3,3s-1.3,3-3,3c-1.7,0-3-1.3-3-3c0-0.5,0.1-0.9,0.3-1.3l-4-4c-0.1,0-0.2,0.1-0.3,0.1v10.4c1.2,0.4,2,1.5,2,2.8c0,1.7-1.3,3-3,3s-3-1.3-3-3c0-1.3,0.8-2.4,2-2.8V18.8c-1.2-0.4-2-1.5-2-2.8c0-0.5,0.1-0.9,0.3-1.3l-4.1-4.1L5.8,22.1C5.3,22.6,5,23.3,5,24c0,0.7,0.3,1.4,0.8,1.9l16.3,16.3c0,0,0,0,0,0c0.5,0.5,1.2,0.8,1.9,0.8s1.4-0.3,1.9-0.8l16.3-16.3c0.5-0.5,0.8-1.2,0.8-1.9C43,23.3,42.7,22.6,42.2,22.1z"></path>

    </g>

    <g id="link">
    <path id="Vector" d="M9.62 7.04C8.93 6.36 8.01 5.98 7.04 5.98C6.08 5.98 5.15 6.36 4.47 7.04L1.89 9.62C1.21 10.3 0.83 11.22 0.83 12.19C0.83 13.15 1.21 14.08 1.89 14.76C2.58 15.45 3.5 15.83 4.47 15.83C5.43 15.83 6.36 15.45 7.04 14.76L8.33 13.48" stroke="#FCFCFC" stroke-opacity="1.000000" stroke-width="1.666667" stroke-linejoin="round" stroke-linecap="round"/>
	<path id="Vector" d="M7.04 9.62C7.72 10.3 8.65 10.68 9.62 10.68C10.58 10.68 11.51 10.3 12.19 9.62L14.76 7.04C15.45 6.36 15.83 5.43 15.83 4.47C15.83 3.5 15.45 2.58 14.76 1.89C14.08 1.21 13.15 0.83 12.19 0.83C11.22 0.83 10.3 1.21 9.62 1.89L8.33 3.18" stroke="#FCFCFC" stroke-opacity="1.000000" stroke-width="1.666667" stroke-linejoin="round" stroke-linecap="round"/>
    </g>

</svg>
